<?xml version="1.0" encoding="UTF-8" standalone="no"?>
<svg
   xmlns:dc="http://purl.org/dc/elements/1.1/"
   xmlns:cc="http://creativecommons.org/ns#"
   xmlns:rdf="http://www.w3.org/1999/02/22-rdf-syntax-ns#"
   xmlns:svg="http://www.w3.org/2000/svg"
   xmlns="http://www.w3.org/2000/svg"
   width="100%"
   height="100%"
   viewBox="0 0 64 64"
   version="1.1"
   xml:space="preserve"
   style="fill-rule:evenodd;clip-rule:evenodd;stroke-linecap:round;stroke-linejoin:round;stroke-miterlimit:2;"
   id="svg35">
  <metadata
   id="metadata41">
    <rdf:RDF>
      <cc:Work
   rdf:about="">
        <dc:format>image/svg+xml</dc:format>

        <dc:type
   rdf:resource="http://purl.org/dc/dcmitype/StillImage" />

      </cc:Work>

    </rdf:RDF>

  </metadata>

  <defs
   id="defs39" />

  
  <path
   d="M37,14.614c7.554,2.172 13.087,9.138 13.087,17.386"
   style="fill:none;stroke:#222a33;stroke-width:2px;"
   id="path3" />

  <path
   d="M38,49.066c-1.878,0.661 -3.897,1.021 -6,1.021"
   style="fill:none;stroke:#222a33;stroke-width:2px;"
   id="path5" />

  <path
   d="M27.5,49.522c-7.808,-2.003 -13.587,-9.093 -13.587,-17.522"
   style="fill:none;stroke:#222a33;stroke-width:2px;"
   id="path7" />

  <path
   d="M14.358,28c1.822,-8.06 9.034,-14.087 17.642,-14.087"
   style="fill:none;stroke:#222a33;stroke-width:2px;"
   id="path9" />

  <path
   d="M32,44.686l0,6.783"
   style="fill:none;stroke:#222a33;stroke-width:2px;"
   id="path11" />

  <path
   d="M19.856,44.144l1.551,-1.551"
   style="fill:none;stroke:#222a33;stroke-width:2px;"
   id="path13" />

  <path
   d="M19.314,32l-6.783,0"
   style="fill:none;stroke:#222a33;stroke-width:2px;"
   id="path15" />

  <path
   d="M19.856,19.856l1.551,1.551"
   style="fill:none;stroke:#222a33;stroke-width:2px;"
   id="path17" />

  <path
   d="M32,12.531l0,6.783"
   style="fill:none;stroke:#222a33;stroke-width:2px;"
   id="path19" />

  <path
   d="M42.593,21.407l1.551,-1.551"
   style="fill:none;stroke:#222a33;stroke-width:2px;"
   id="path21" />

  <path
   d="M51.469,32l-6.783,0"
   style="fill:none;stroke:#222a33;stroke-width:2px;"
   id="path23" />

  <path
   d="M42.75,55.677c-3.277,1.492 -6.917,2.323 -10.75,2.323c-14.35,0 -26,-11.65 -26,-26c0,-14.35 11.65,-26 26,-26c14.35,0 26,11.65 26,26c0,1.887 -0.201,3.727 -0.584,5.5"
   style="fill:none;stroke:#222a33;stroke-width:2px;"
   id="path25" />

  <path
   d="M24.087,30.242l0,-0.911c0,-1.682 1.364,-3.046 3.046,-3.046c0,0 0.001,0 0.001,0c1.751,0 3.17,1.419 3.17,3.17c0,0.065 0,0.13 0,0.194c0,1.479 -0.518,2.91 -1.465,4.046c-1.674,2.01 -4.187,5.025 -4.187,5.025l6.218,0"
   style="fill:none;stroke:#222a33;stroke-width:2px;"
   id="path27" />

  <path
   d="M36.609,27.348c0,0 -1.623,2.705 -2.624,4.372c-0.156,0.261 -0.16,0.586 -0.01,0.851c0.15,0.265 0.43,0.429 0.735,0.429c1.997,0 5.29,0 5.29,0l0,5.652"
   style="fill:none;stroke:#222a33;stroke-width:2px;"
   id="path29" />

  <path
   d="M54,42c0,-1.657 -1.343,-3 -3,-3c-2.859,0 -7.141,0 -10,0c-1.657,0 -3,1.343 -3,3c0,1.902 0,4.407 0,6.594c0,2.98 1.764,5.678 4.495,6.872c1.822,0.798 3.505,1.534 3.505,1.534c0,0 1.683,-0.736 3.505,-1.534c2.731,-1.194 4.495,-3.892 4.495,-6.872c0,-2.187 0,-4.692 0,-6.594Z"
   style="fill:none;stroke:#222a33;stroke-width:2px;"
   id="path31" />

  <path
   d="M42.75,47.248l2.5,2l4,-3.5"
   style="fill:none;stroke:#222a33;stroke-width:2px;"
   id="path33" />

</svg>
