<?xml version="1.0" encoding="utf-8"?>
<!-- Generator: Adobe Illustrator 16.0.0, SVG Export Plug-In . SVG Version: 6.00 Build 0)  -->
<!DOCTYPE svg PUBLIC "-//W3C//DTD SVG 1.1//EN" "http://www.w3.org/Graphics/SVG/1.1/DTD/svg11.dtd">
<svg version="1.1" id="Layer_1" xmlns="http://www.w3.org/2000/svg" xmlns:xlink="http://www.w3.org/1999/xlink" x="0px" y="0px"
	 width="128px" height="128px" viewBox="0 0 128 128" enable-background="new 0 0 128 128" xml:space="preserve">
<g>
	<g>
		<path fill="#282D33" d="M83.254,86.661c-9.652,0-18.769-3.039-26.431-8.802l-11.55,3.063l3.097-11.429
			c-5.823-7.583-8.895-16.606-8.895-26.163C39.476,19.438,59.115,0,83.254,0c24.141,0,43.78,19.438,43.78,43.33
			C127.034,67.223,107.395,86.661,83.254,86.661z M57.715,73.484l0.785,0.618c7.111,5.599,15.671,8.559,24.754,8.559
			c21.936,0,39.78-17.644,39.78-39.332c0-21.686-17.845-39.33-39.78-39.33C61.32,4,43.476,21.644,43.476,43.331
			c0,8.976,2.989,17.435,8.646,24.462l0.639,0.794l-1.813,6.692L57.715,73.484z"/>
	</g>
	<g>
		<path fill="#282D33" d="M76.262,128c-16.711,0-35.303-9.324-51.007-25.583C8.593,86.048-0.226,67.042,1.095,50.309l0.05-0.63
			l0.402-0.487c1.288-1.559,2.469-2.868,3.611-4.003c2.645-2.605,5.577-4.92,8.723-6.886l1.639-1.024l1.081,1.603
			c4.691,6.961,9.952,13.939,15.638,20.741l1.059,1.266l-1.042,1.28c-0.165,0.202-0.395,0.461-0.724,0.68l-6.768,4.451
			c-0.561,0.36-0.755,1-0.822,1.35c-0.199,1.032,0.11,2.249,0.827,3.257c2.036,2.878,10.249,11.88,15.424,17.304
			c5.449,5.087,14.509,13.175,17.424,15.196c0.821,0.571,1.771,0.886,2.678,0.885c0.916,0,1.675-0.321,2.032-0.859l1.086-1.62
			c1.138-1.696,2.274-3.391,3.413-5.082c0.204-0.289,0.428-0.519,0.711-0.74l1.261-0.987l1.239,1.014
			c6.856,5.608,13.911,10.813,20.966,15.471l1.646,1.086l-1.063,1.66c-1.993,3.117-4.335,6.018-6.96,8.622
			c-1.162,1.149-2.484,2.321-4.043,3.585l-0.484,0.393l-0.622,0.048C78.426,127.959,77.345,128,76.262,128z M5.039,51.25
			c-0.957,15.403,7.417,32.985,23.057,48.35C43.086,115.12,60.629,124,76.262,124c0.77,0,1.535-0.022,2.287-0.067
			c1.245-1.028,2.316-1.987,3.261-2.922c1.95-1.935,3.732-4.049,5.313-6.304c-6.045-4.063-12.077-8.514-17.977-13.263
			c-0.798,1.188-1.604,2.391-2.412,3.594l-1.079,1.61c-1.093,1.65-3.099,2.642-5.36,2.642c-1.717,0.001-3.479-0.567-4.961-1.6
			c-3.215-2.23-12.59-10.625-17.914-15.597l-0.082-0.081c-5.058-5.299-13.587-14.618-15.832-17.792
			c-1.356-1.904-1.902-4.214-1.493-6.33c0.327-1.69,1.239-3.092,2.57-3.945l5.205-3.424c-4.808-5.845-9.303-11.81-13.396-17.774
			c-2.292,1.568-4.446,3.34-6.42,5.285C7.034,48.965,6.091,49.998,5.039,51.25z"/>
	</g>
	<g>
		<path fill="#282D33" d="M90.81,62.534H75.706V50.823H63.867V35.841h11.839V24.129H90.81v11.712h11.837v14.981H90.81V62.534z
			 M79.706,58.534h7.104V46.822h11.837v-6.981H86.81V28.129h-7.104v11.712H67.867v6.981h11.839V58.534z"/>
	</g>
</g>
</svg>
