<svg xmlns="http://www.w3.org/2000/svg" viewBox="0 0 32 32"><defs><style>.cls-1{fill:#231f20;}</style></defs><g id="doctor_chair" data-name="doctor chair"><path class="cls-1" d="M28.92,19.62a2.82,2.82,0,0,0-1.63-1.91c-1.13-.47-2.14-.81-3.12-1.15V3a1,1,0,0,0-1-1h-3a1,1,0,0,0-.54.16l-2.2,1.4a4.5,4.5,0,0,0-2.71-.78A4.44,4.44,0,0,0,11.6,4.24l-.34.37A1,1,0,0,0,11.33,6l5.17,4.72a1,1,0,0,0,.67.26,1,1,0,0,0,.74-.33l.34-.36A4.56,4.56,0,0,0,19.36,8a1,1,0,0,0-.82-1.15,1,1,0,0,0-1.15.82,2.35,2.35,0,0,1-.32.86l-3.62-3.3a2.53,2.53,0,0,1,3.21.23,1,1,0,0,0,1.36,0,.88.88,0,0,0,.15,0L20.46,4h1.71V15.85c-.26-.1-.52-.19-.8-.31A7.26,7.26,0,0,0,18.61,15h-6a1.43,1.43,0,0,1-1.28-.81L9.05,9.56A3.18,3.18,0,0,0,7.19,7.93a3.11,3.11,0,0,0-2.43.18,3.26,3.26,0,0,0-1.43,4.33,1,1,0,1,0,1.8-.88,1.26,1.26,0,0,1,.54-1.67,1.16,1.16,0,0,1,1.58.55l2.27,4.63A3.4,3.4,0,0,0,12.59,17h6a5.48,5.48,0,0,1,2,.39c1,.43,2,.75,2.89,1.06s1.94.66,3,1.11a.75.75,0,0,1,.45.54.76.76,0,0,1-.23.78A.71.71,0,0,1,26,21l-4.82-1.64A7.24,7.24,0,0,0,18.86,19H9.65a1.41,1.41,0,0,1-1.27-.81L6.6,14.57a1,1,0,1,0-1.79.88l1.77,3.62a3.41,3.41,0,0,0,1.58,1.58L9.63,25A4,4,0,0,0,6,29a1,1,0,0,0,1,1h9.42a1,1,0,0,0,0-2H8.27A2,2,0,0,1,10,27H20a2,2,0,0,1,1.73,1H19.47a1,1,0,0,0,0,2H23a1,1,0,0,0,1-1,4,4,0,0,0-3.25-3.92L19.4,21a5.79,5.79,0,0,1,1.17.24l4.81,1.64a2.77,2.77,0,0,0,.89.15,2.69,2.69,0,0,0,1.82-.72A2.79,2.79,0,0,0,28.92,19.62ZM11.72,25l-1.33-4h6.89l1.33,4Z"/></g></svg>